<svg width="720" height="540" viewBox="0 0 720 540" fill="none" xmlns="http://www.w3.org/2000/svg">
    <path
        d="M551.756 0.667969L448.211 98.6167V42.4476H375.818L272.273 140.383V97.267H199.879L94.5 196.959V361.901H169.357L270.438 266.312V361.901H345.282L446.363 266.312V361.901H521.22L624.149 264.569V0.667969H551.756Z"
        fill="black" />
    <path d="M656.299 3.85327V0.799805H672.34V3.85327H666.128V20.9032H662.511V3.85327H656.299Z" fill="black" />
    <path d="M675.98 0.799805H680.436L686.412 15.3728H686.648L692.624 0.799805H697.08V20.9032H693.581V7.09023H693.397L687.841 20.8508H685.233L679.676 7.064H679.493V20.9032H675.994V0.799805H675.98Z"
        fill="black" />
    <path
        d="M94.5 505.703V419.565H113.905V434.203H114.914C116.707 429.27 119.681 425.419 123.83 422.652C127.979 419.849 132.932 418.443 138.693 418.443C144.454 418.443 149.442 419.864 153.444 422.705C157.481 425.508 160.322 429.343 161.968 434.203H162.865C164.77 429.417 167.984 425.606 172.511 422.764C177.072 419.884 182.475 418.448 188.716 418.448C196.643 418.448 203.109 420.952 208.121 425.963C213.133 430.975 215.636 438.284 215.636 447.891V505.708H195.281V451.031C195.281 445.686 193.86 441.777 191.019 439.313C188.177 436.809 184.699 435.555 180.589 435.555C175.69 435.555 171.859 437.089 169.091 440.155C166.362 443.183 164.996 447.127 164.996 451.986V505.708H145.086V450.188C145.086 445.74 143.739 442.188 141.05 439.533C138.394 436.878 134.916 435.55 130.62 435.55C127.705 435.55 125.05 436.3 122.654 437.794C120.263 439.254 118.353 441.326 116.932 444.021C115.512 446.676 114.801 449.777 114.801 453.329V505.708H94.5V505.703Z"
        fill="black" />
    <path
        d="M257.855 507.441C252.397 507.441 247.479 506.471 243.104 504.526C238.768 502.547 235.329 499.627 232.787 495.777C230.283 491.926 229.029 487.179 229.029 481.531C229.029 476.671 229.926 472.654 231.724 469.475C233.517 466.295 235.966 463.753 239.072 461.847C242.173 459.941 245.671 458.501 249.561 457.531C253.485 456.522 257.541 455.792 261.73 455.346C266.776 454.822 270.871 454.356 274.011 453.945C277.152 453.494 279.434 452.823 280.855 451.927C282.315 450.991 283.04 449.551 283.04 447.611V447.273C283.04 443.05 281.786 439.777 279.283 437.46C276.779 435.143 273.169 433.982 268.461 433.982C263.488 433.982 259.545 435.064 256.63 437.235C253.749 439.405 251.809 441.962 250.8 444.916L231.846 442.227C233.34 436.995 235.809 432.62 239.248 429.102C242.688 425.551 246.896 422.895 251.868 421.137C256.841 419.344 262.337 418.447 268.353 418.447C272.502 418.447 276.632 418.932 280.747 419.907C284.858 420.877 288.615 422.489 292.02 424.728C295.42 426.932 298.153 429.945 300.206 433.756C302.298 437.568 303.346 442.334 303.346 448.056V505.707H283.829V493.876H283.158C281.923 496.267 280.184 498.511 277.945 500.607C275.741 502.665 272.953 504.326 269.588 505.599C266.261 506.834 262.352 507.451 257.869 507.451L257.855 507.441ZM263.126 492.524C267.202 492.524 270.734 491.721 273.727 490.114C276.72 488.468 279.018 486.302 280.625 483.608C282.271 480.914 283.094 477.979 283.094 474.805V464.654C282.457 465.178 281.374 465.663 279.841 466.114C278.347 466.565 276.662 466.957 274.795 467.29C272.924 467.628 271.077 467.926 269.245 468.186C267.412 468.446 265.825 468.671 264.478 468.857C261.45 469.269 258.741 469.94 256.346 470.876C253.955 471.811 252.064 473.119 250.683 474.8C249.301 476.446 248.605 478.577 248.605 481.193C248.605 484.931 249.972 487.752 252.701 489.663C255.43 491.569 258.908 492.524 263.131 492.524H263.126Z"
        fill="black" />
    <path
        d="M358.048 539.8C350.758 539.8 344.498 538.81 339.261 536.826C334.029 534.881 329.82 532.265 326.641 528.973C323.462 525.681 321.257 522.036 320.022 518.039L338.305 513.61C339.128 515.29 340.324 516.956 341.896 518.602C343.464 520.282 345.58 521.669 348.235 522.751C350.925 523.873 354.31 524.432 358.386 524.432C364.142 524.432 368.909 523.031 372.686 520.224C376.463 517.456 378.349 512.895 378.349 506.541V490.223H377.34C376.292 492.314 374.758 494.465 372.74 496.67C370.756 498.874 368.12 500.726 364.833 502.22C361.58 503.714 357.49 504.464 352.551 504.464C345.933 504.464 339.932 502.911 334.548 499.81C329.203 496.67 324.941 491.996 321.762 485.789C318.621 479.543 317.049 471.729 317.049 462.348C317.049 452.966 318.621 444.907 321.762 438.402C324.941 431.857 329.223 426.904 334.607 423.538C339.991 420.138 345.992 418.434 352.605 418.434C357.651 418.434 361.801 419.296 365.054 421.015C368.346 422.696 370.962 424.734 372.906 427.129C374.851 429.486 376.326 431.71 377.335 433.802H378.457V419.555H398.479V507.094C398.479 514.458 396.72 520.552 393.208 525.377C389.695 530.198 384.889 533.808 378.795 536.199C372.701 538.59 365.783 539.79 358.048 539.79V539.8ZM358.215 488.542C362.516 488.542 366.175 487.494 369.208 485.402C372.235 483.31 374.533 480.297 376.105 476.373C377.678 472.449 378.462 467.736 378.462 462.24C378.462 456.743 377.678 452.07 376.105 447.994C374.572 443.918 372.294 440.758 369.267 438.514C366.273 436.231 362.594 435.095 358.219 435.095C353.845 435.095 349.921 436.271 346.893 438.627C343.866 440.983 341.583 444.217 340.049 448.327C338.516 452.403 337.752 457.037 337.752 462.235C337.752 467.433 338.516 472.126 340.049 476.084C341.617 480.008 343.919 483.075 346.947 485.28C350.014 487.45 353.771 488.532 358.219 488.532L358.215 488.542Z"
        fill="black" />
    <path
        d="M436.43 455.234V505.703H416.129V419.565H435.534V434.203H436.543C438.522 429.383 441.682 425.547 446.017 422.705C450.392 419.864 455.796 418.443 462.223 418.443C468.165 418.443 473.344 419.712 477.757 422.255C482.206 424.797 485.645 428.481 488.075 433.302C490.544 438.122 491.759 443.977 491.719 450.855V505.698H471.418V453.995C471.418 448.239 469.924 443.732 466.931 440.479C463.977 437.226 459.881 435.599 454.649 435.599C451.097 435.599 447.938 436.383 445.17 437.956C442.441 439.489 440.29 441.713 438.723 444.628C437.189 447.543 436.425 451.075 436.425 455.229L436.43 455.234Z"
        fill="black" />
    <path
        d="M509.203 505.703V419.565H529.505V505.703H509.203ZM519.408 407.342C516.194 407.342 513.426 406.279 511.109 404.148C508.792 401.978 507.631 399.381 507.631 396.354C507.631 393.326 508.792 390.691 511.109 388.56C513.426 386.389 516.194 385.307 519.408 385.307C522.622 385.307 525.429 386.389 527.707 388.56C530.024 390.691 531.185 393.287 531.185 396.354C531.185 399.42 530.024 401.983 527.707 404.148C525.429 406.279 522.661 407.342 519.408 407.342Z"
        fill="black" />
    <path
        d="M590.849 419.563V435.264H539.93V419.563H590.849ZM552.657 505.701V411.431C552.657 405.636 553.852 400.815 556.248 396.965C558.678 393.114 561.931 390.233 566.007 388.328C570.083 386.422 574.604 385.467 579.577 385.467C583.089 385.467 586.215 385.746 588.944 386.309C591.672 386.868 593.691 387.372 594.999 387.823L590.962 403.524C590.1 403.265 589.017 403 587.709 402.74C586.401 402.442 584.941 402.29 583.334 402.29C579.557 402.29 576.887 403.206 575.315 405.038C573.781 406.831 573.017 409.413 573.017 412.778V505.701H552.662H552.657Z"
        fill="black" />
    <path
        d="M603.592 505.703V419.565H623.893V505.703H603.592ZM613.797 407.342C610.583 407.342 607.815 406.279 605.498 404.148C603.181 401.978 602.02 399.381 602.02 396.354C602.02 393.326 603.181 390.691 605.498 388.56C607.815 386.389 610.583 385.307 613.797 385.307C617.01 385.307 619.817 386.389 622.095 388.56C624.413 390.691 625.574 393.287 625.574 396.354C625.574 399.42 624.413 401.983 622.095 404.148C619.812 406.279 617.049 407.342 613.797 407.342Z"
        fill="black" />
</svg>
