<svg width="28" height="27" viewBox="0 0 28 27" fill="none" xmlns="http://www.w3.org/2000/svg">
<path fill-rule="evenodd" clip-rule="evenodd" d="M14 2.53125C11.2616 2.53125 9.04165 4.67189 9.04165 7.3125C9.04165 9.95311 11.2616 12.0938 14 12.0938C16.7384 12.0938 18.9583 9.95311 18.9583 7.3125C18.9583 4.67189 16.7384 2.53125 14 2.53125ZM10.7916 7.3125C10.7916 5.60387 12.2281 4.21875 14 4.21875C15.7719 4.21875 17.2083 5.60387 17.2083 7.3125C17.2083 9.02113 15.7719 10.4062 14 10.4062C12.2281 10.4062 10.7916 9.02113 10.7916 7.3125Z" fill="black"/>
<path fill-rule="evenodd" clip-rule="evenodd" d="M14 14.3438C9.0064 14.3438 4.95831 18.2473 4.95831 23.0625V24.4688H23.0416V23.0625C23.0416 18.2473 18.9936 14.3438 14 14.3438ZM14 16.0312C17.9294 16.0312 21.1328 19.0284 21.2859 22.7812H6.71404C6.86714 19.0284 10.0706 16.0312 14 16.0312Z" fill="black"/>
</svg>
